<svg width="24" height="24" viewBox="0 0 24 24" fill="none" xmlns="http://www.w3.org/2000/svg">
<g clip-path="url(#clip0_1017_1788)">
<path fill-rule="evenodd" clip-rule="evenodd" d="M23 12C23 18.0751 18.0751 23 12 23C5.92487 23 1 18.0751 1 12C1 5.92487 5.92487 1 12 1C18.0751 1 23 5.92487 23 12ZM24 12C24 18.6274 18.6274 24 12 24C5.37258 24 0 18.6274 0 12C0 5.37258 5.37258 0 12 0C18.6274 0 24 5.37258 24 12ZM11.1698 14.5266H11.1698V14.534C11.1698 14.5315 11.1698 14.5291 11.1698 14.5266ZM12.6766 14.5266H11.1698C11.1708 14.0687 11.2659 13.6542 11.4551 13.2759C11.6452 12.8955 11.872 12.581 12.1353 12.325C12.3986 12.069 12.662 11.8276 12.9253 11.6008C13.1886 11.3741 13.4154 11.1254 13.5982 10.8621C13.7811 10.5987 13.8762 10.3135 13.8762 10.0136C13.8762 9.54545 13.7153 9.1651 13.3934 8.87252C13.0716 8.57994 12.64 8.43365 12.0987 8.43365C11.5282 8.43365 11.0601 8.6092 10.687 8.96029C10.314 9.31139 10.058 9.77952 9.91902 10.3574L8.5 9.93312C8.65361 9.09195 9.04128 8.38976 9.67032 7.83386C10.2994 7.27795 11.1186 7 12.128 7C13.1155 7 13.9274 7.27795 14.5564 7.83386C15.1855 8.38976 15.5 9.09927 15.5 9.9697C15.5 10.4086 15.4049 10.8109 15.2147 11.1693C15.0246 11.5277 14.7905 11.8276 14.5125 12.069L14.5125 12.069C14.2346 12.3104 13.9566 12.5517 13.6787 12.7858C13.4007 13.0199 13.1667 13.2832 12.9692 13.5758C12.7717 13.8683 12.6766 14.1829 12.6766 14.5266ZM12.64 17.489C12.4425 17.6865 12.2011 17.7816 11.9159 17.7816C11.6306 17.7816 11.3892 17.6865 11.1917 17.489C10.9943 17.2915 10.8918 17.0502 10.8918 16.7649C10.8918 16.4869 10.9943 16.2529 11.1917 16.0554C11.3892 15.8579 11.6306 15.7628 11.9159 15.7628C12.2011 15.7628 12.4425 15.8579 12.64 16.0554C12.8375 16.2529 12.9399 16.4869 12.9399 16.7649C12.9399 17.0502 12.8375 17.2915 12.64 17.489Z" fill="#FF7300"/>
</g>
<defs>
<clipPath id="clip0_1017_1788">
<rect width="24" height="24" fill="white"/>
</clipPath>
</defs>
</svg>
