<svg width="24" height="24" viewBox="0 0 24 24" fill="none" xmlns="http://www.w3.org/2000/svg">
<path fill-rule="evenodd" clip-rule="evenodd" d="M4.5 3C4.5 1.61929 5.61929 0.5 7 0.5H20C21.3807 0.5 22.5 1.61929 22.5 3V14.1716C22.5 14.8346 22.2366 15.4705 21.7678 15.9393L20.3536 17.3536L18.7678 18.9393L17.3536 20.3536L14.9393 22.7678C14.4705 23.2366 13.8346 23.5 13.1716 23.5H4C2.61929 23.5 1.5 22.3807 1.5 21V6C1.5 4.61929 2.61929 3.5 4 3.5H4.5V3ZM19.6464 16.6464L19.5 16.7929V6C19.5 4.61929 18.3807 3.5 17 3.5H5.5V3C5.5 2.17157 6.17157 1.5 7 1.5H20C20.8284 1.5 21.5 2.17157 21.5 3V14.1716C21.5 14.5694 21.342 14.9509 21.0607 15.2322L19.6464 16.6464ZM18.0607 18.2322L16.6464 19.6464L14.2322 22.0607C14.0297 22.2632 13.7752 22.4019 13.5 22.4636V18.5C13.5 18.2239 13.7239 18 14 18H18.2505C18.1955 18.083 18.1321 18.1608 18.0607 18.2322ZM18.5 17H14C13.1716 17 12.5 17.6716 12.5 18.5V22.5H4C3.17157 22.5 2.5 21.8284 2.5 21V6C2.5 5.17157 3.17157 4.5 4 4.5H17C17.8284 4.5 18.5 5.17157 18.5 6V17ZM6.5 9C6.5 8.72386 6.72386 8.5 7 8.5H14C14.2761 8.5 14.5 8.72386 14.5 9C14.5 9.27614 14.2761 9.5 14 9.5H7C6.72386 9.5 6.5 9.27614 6.5 9ZM7 12.5C6.72386 12.5 6.5 12.7239 6.5 13C6.5 13.2761 6.72386 13.5 7 13.5H14C14.2761 13.5 14.5 13.2761 14.5 13C14.5 12.7239 14.2761 12.5 14 12.5H7Z" fill="#FF7300"/>
</svg>
