<!--
 * Copyright (c) 2021, WSO2 Inc. (http://www.wso2.com). All Rights Reserved.
 *
 * This software is the property of WSO2 Inc. and its suppliers, if any.
 * Dissemination of any information or reproduction of any material contained
 * herein in any form is strictly forbidden, unless permitted by WSO2 expressly.
 * You may not alter or remove any copyright or other notice from copies of this content."
-->

<svg id="onboard-users-illustration" class="icon" width="195" height="167" viewBox="0 0 195 167" fill="none" xmlns="http://www.w3.org/2000/svg">
    <path d="M82.7979 149.957C122.297 149.957 154.317 117.922 154.317 78.4053C154.317 38.8884 122.297 6.85352 82.7979 6.85352C43.299 6.85352 11.2788 38.8884 11.2788 78.4053C11.2788 117.922 43.299 149.957 82.7979 149.957Z" fill="#F5F5F5"/>
    <path d="M30.3613 123.514L45.3003 139.628C46.1407 140.284 46.8207 141.124 47.2884 142.083C47.7561 143.041 47.9993 144.094 47.9997 145.161V162.112C47.9997 163.143 47.5902 164.132 46.8614 164.861C46.1325 165.59 45.1441 166 44.1134 166H24.6797" stroke="#D8BAA3" stroke-miterlimit="10" stroke-linecap="round"/>
    <path d="M47.9569 120.957C47.9569 121.634 47.688 122.283 47.2093 122.762C46.7306 123.241 46.0813 123.51 45.4043 123.51H8.48758C6.50248 123.51 4.59863 122.722 3.19456 121.318C1.79049 119.914 1.00113 118.01 1 116.024V86.713C1 85.3584 1.53786 84.0593 2.49527 83.1014C3.45267 82.1436 4.75119 81.6055 6.10517 81.6055H25.0581C25.9827 81.6055 26.8695 81.973 27.5234 82.6271C28.1772 83.2812 28.5445 84.1684 28.5445 85.0935V110.91C28.5445 112.897 29.3334 114.802 30.7376 116.207C32.1418 117.612 34.0462 118.401 36.0321 118.401H45.3915C46.0685 118.401 46.7178 118.67 47.1965 119.149C47.6752 119.628 47.9441 120.277 47.9441 120.955L47.9569 120.957Z" fill="white" stroke="#D8BAA3" stroke-miterlimit="10" stroke-linecap="round"/>
    <path d="M47.8548 121.671C47.7007 122.203 47.378 122.671 46.9352 123.003C46.4924 123.336 45.9536 123.515 45.4001 123.514H8.48758C6.50175 123.514 4.59725 122.725 3.19306 121.32C1.78887 119.916 1 118.01 1 116.023V86.7127C0.999307 85.7687 1.26014 84.843 1.75355 84.0383C2.24695 83.2336 2.95362 82.5815 3.79508 82.1543C3.26561 82.9795 2.98566 83.9402 2.98889 84.9208V115.379C2.98861 116.212 3.15247 117.038 3.47112 117.808C3.78977 118.578 4.25696 119.278 4.84601 119.867C5.43505 120.457 6.13441 120.924 6.90414 121.244C7.67387 121.563 8.49888 121.727 9.33206 121.727H47.3953C47.5499 121.723 47.7037 121.704 47.8548 121.671Z" fill="#F0E1D4" stroke="#D8BAA3" stroke-miterlimit="10" stroke-linecap="round"/>
    <path d="M28.6489 100.9H35.6558C38.9136 100.902 42.0376 102.197 44.3408 104.502C46.6441 106.807 47.9379 109.933 47.9379 113.192V121.718" stroke="#D8BAA3" stroke-miterlimit="10" stroke-linecap="round"/>
    <path d="M14.1694 123.514L29.1084 139.628C29.9489 140.284 30.6288 141.124 31.0965 142.083C31.5642 143.041 31.8074 144.094 31.8078 145.161V162.112C31.8078 163.143 31.3983 164.132 30.6695 164.861C29.9407 165.59 28.9522 166 27.9215 166H8.48779" stroke="#D8BAA3" stroke-miterlimit="10" stroke-linecap="round"/>
    <path d="M30.691 62.1235C30.691 62.1235 37.6872 61.0808 41.8883 70.2764C45.5704 78.3292 48.3145 85.8372 48.3145 85.8372C53.2126 88.4102 58.2991 90.6071 63.53 92.4089V96.9652C63.53 96.9652 48.976 97.8164 44.1197 96.9652C40.5482 96.3438 30.6952 83.1217 30.0124 74.1517C29.3296 65.1816 30.691 62.1235 30.691 62.1235Z" fill="#CE7343"/>
    <path d="M61.6177 96.9231C61.0795 96.8146 61.471 95.1377 61.7879 94.1055C61.8819 93.8452 62.0346 93.6101 62.2342 93.4185C62.4338 93.2269 62.6749 93.0842 62.9387 93.0011C64.2395 92.468 65.6562 92.2817 67.0505 92.4604C68.474 92.7466 69.7491 93.5304 70.6475 94.6716C70.9325 95.0014 72.328 96.5868 72.328 97.0125L61.6177 96.9231Z" fill="#FAB6AD"/>
    <path d="M23.995 58.4258C17.9645 59.0472 6.32049 66.3743 8.25407 93.276C9.48569 110.478 20.7745 119.099 22.138 118.513C23.5015 117.928 46.6534 106.513 41.3504 100.371C36.2772 94.4975 37.9279 90.0051 38.7255 82.0501C39.5232 74.0952 40.7229 65.4507 34.2755 62.4458C23.8291 57.5958 25.6074 58.2598 23.995 58.4258Z" fill="#FF8C00"/>
    <path d="M72.3262 165.877H55.8345C55.8174 165.613 55.8132 165.364 55.8175 165.119H72.3475C72.3653 165.372 72.3582 165.626 72.3262 165.877Z" fill="#383C4D"/>
    <path d="M57.5149 158.178C57.5744 160.055 55.8345 161.244 55.8345 165.124H72.3263C72.382 164.2 72.1036 163.287 71.542 162.552C70.9803 161.816 70.173 161.308 69.2674 161.119C65.9704 160.367 62.971 159.367 62.6732 158.182L57.5149 158.178Z" fill="#FFB000"/>
    <path d="M39.7795 99.2323C39.7795 99.2323 64.9501 97.5894 71.0678 105.097C77.1855 112.605 65.3117 142.146 64.1119 158.413C61.2987 158.741 58.457 158.741 55.6437 158.413C53.1975 157.788 51.0704 126.266 57.2306 118.632C57.2306 118.632 34.7509 124.255 25.619 117.164C16.4871 110.073 35.9782 99.3643 39.7795 99.2323Z" fill="#383C4D"/>
    <path d="M109.595 139.82L96.5128 150.297C96.3235 150.061 96.1596 149.831 96.0107 149.605L109.042 139.178C109.25 139.37 109.435 139.586 109.595 139.82Z" fill="#41465A"/>
    <path d="M93.252 143.057C94.3942 144.509 93.7093 146.556 95.9705 149.633L109.053 139.159C108.56 138.39 107.796 137.836 106.913 137.607C106.03 137.379 105.093 137.493 104.29 137.926C101.231 139.429 98.272 140.538 97.3403 139.784L93.252 143.057Z" fill="#FFB000"/>
    <path d="M21.4306 117.917C21.8092 120.045 42.2767 126.119 65.0713 111.107C65.0713 111.107 68.6066 130.913 91.6351 144.052C91.6351 144.052 96.7063 141.799 98.0847 138.762C98.0847 138.762 81.8396 117.989 76.0559 101.156C73.6267 94.0946 43.068 97.789 38.601 99.2404C34.134 100.692 19.7544 108.474 21.4306 117.917Z" fill="#41465A"/>
    <path d="M22.2373 65.3097C27.5105 67.0611 34.9321 82.6731 34.9321 82.6731C42.1344 83.7327 49.1581 85.7726 55.808 88.7361C55.9283 90.5027 55.4469 92.258 54.4424 93.7159C47.4795 94.6552 40.4503 95.0111 33.4282 94.7799C30.9969 94.5288 21.782 87.6337 16.7173 78.0912C12.1865 69.5467 15.7962 63.1688 22.2373 65.3097Z" fill="#FF8C00"/>
    <path d="M55.712 88.8198C57.2848 87.9239 59.0475 87.4134 60.8555 87.3301C62.312 87.7256 63.6348 88.5072 64.6843 89.5924C65.3176 90.5009 65.8679 91.4645 66.3286 92.4717C66.3286 92.9228 61.6786 92.7547 61.0256 92.7547C60.3725 92.7547 56.0715 92.825 55.2398 92.6526C54.408 92.4802 55.712 88.8198 55.712 88.8198Z" fill="#FFCFC9"/>
    <path d="M61.0213 92.7704C61.6764 92.7704 66.3242 92.9344 66.3242 92.4853C65.8618 91.479 65.3116 90.5155 64.6799 89.6059C63.6332 88.5173 62.3094 87.7352 60.8511 87.3438C61.4108 88.1316 61.7249 89.0675 61.7537 90.0337C61.7824 90.9998 61.5246 91.9529 61.0127 92.7727" fill="#FAB6AD"/>
    <path d="M29.1578 49.9004C28.2905 53.0236 26.5671 55.8418 24.1824 58.0362C21.3256 60.8432 33.6121 63.016 33.9354 62.9437C34.7877 61.2105 35.4742 59.4007 35.9859 57.5382C36.2795 56.5252 29.1578 49.9004 29.1578 49.9004Z" fill="#FFCFC9"/>
    <path d="M35.9839 57.5373C35.8563 57.9736 35.3457 59.4016 34.7884 60.887C32.9438 59.9291 31.4708 58.3835 30.6022 56.4946C29.7751 54.577 29.3209 52.5193 29.2642 50.4315C29.2531 50.3023 29.2735 50.1723 29.3238 50.0527C30.3873 51.0636 36.2519 56.6159 35.9839 57.5373Z" fill="#FAB6AD"/>
    <path d="M39.7594 45.6684C40.4443 47.9834 40.5358 50.4337 40.0253 52.7933C39.4468 54.52 38.6368 56.1601 37.6174 57.6689C37.1345 57.8285 31.8337 57.1347 30.5978 54.8278C29.8231 53.2862 29.333 51.6172 29.1513 49.9012C28.9918 49.2074 31.8826 43.5786 35.5775 43.6871C39.2724 43.7956 39.6105 45.0768 39.7594 45.6684Z" fill="#FFCFC9"/>
    <path d="M41.997 44.6541C41.0143 45.0563 41.7588 46.1969 39.9145 46.3566C38.0703 46.5162 37.6427 44.2646 37.6427 44.2646C37.5648 44.5432 37.4208 44.799 37.2231 45.0101C37.0254 45.2213 36.7797 45.3816 36.5068 45.4776C36.5068 45.4776 37.0003 44.52 36.2941 44.0965C36.1205 43.9728 35.9067 43.9188 35.6952 43.9452C35.4837 43.9716 35.2898 44.0765 35.1518 44.2391C35.0626 44.197 34.9654 44.1747 34.8668 44.1738C34.7682 44.1729 34.6705 44.1934 34.5806 44.2338C34.4906 44.2742 34.4105 44.3337 34.3457 44.4081C34.2809 44.4825 34.233 44.57 34.2053 44.6647C33.8755 45.401 34.4711 45.8437 35.2475 45.9267C35.2475 45.9267 35.3178 47.0227 33.582 47.1886C31.8462 47.3546 31.4868 46.2842 31.4868 46.2842C31.4868 46.2842 31.2017 46.0224 31.0804 46.7843C30.9592 47.5462 31.5548 48.7847 30.3423 49.7637C30.0753 50.0068 29.7707 50.2052 29.4404 50.351C30.0509 50.8788 29.7552 52.4792 28.3768 53.1389C26.4964 54.0284 25.1181 53.3709 24.9479 52.0748C24.7926 50.9001 25.5413 51.3619 25.3499 50.4574C25.1963 50.5791 25.018 50.6658 24.8275 50.7114C24.637 50.757 24.4388 50.7605 24.2468 50.7216C24.0548 50.6827 23.8736 50.6023 23.7158 50.4861C23.558 50.3699 23.4275 50.2207 23.3334 50.0488C23.2481 49.9039 23.1929 49.7433 23.1711 49.5765C23.1494 49.4097 23.1615 49.2403 23.2068 49.0783C23.2521 48.9164 23.3296 48.7652 23.4347 48.634C23.5398 48.5027 23.6703 48.394 23.8183 48.3144C23.8183 48.3144 23.0122 47.2078 23.6822 46.4353C24.4395 45.5542 25.6243 46.1246 25.4499 45.584C25.2754 45.0435 24.8245 43.7496 25.5605 43.0303C26.2965 42.311 27.4749 42.6047 27.6302 42.2195C27.7855 41.8343 27.56 41.2725 26.7985 41.6023C26.8286 41.3565 26.912 41.1203 27.0428 40.91C27.1736 40.6998 27.3486 40.5206 27.5558 40.385C27.9193 40.1996 28.317 40.0909 28.7243 40.0656C29.1315 40.0403 29.5397 40.0991 29.9233 40.2382C29.9643 39.8795 30.0903 39.5358 30.2908 39.2356C30.4914 38.9354 30.7606 38.6874 31.0762 38.5123C31.5256 38.2968 32.0381 38.2522 32.518 38.3869C32.9978 38.5216 33.4123 38.8264 33.6841 39.2444C33.7556 39.0331 33.8866 38.847 34.0613 38.7084C34.236 38.5699 34.447 38.4848 34.6689 38.4633C36.1431 38.2505 37.3577 38.6336 37.647 39.8232C37.9469 41.0767 40.1379 38.1867 41.1695 40.6574C41.3822 41.1618 40.8292 41.5619 41.4546 41.9684C41.8077 42.1982 42.2608 41.447 41.9076 41.1831C42.348 41.3655 42.7148 41.6898 42.95 42.1046C43.071 42.3317 43.1424 42.582 43.1593 42.8389C43.1763 43.0957 43.1385 43.3533 43.0483 43.5944C42.9582 43.8355 42.8179 44.0547 42.6366 44.2374C42.4554 44.4201 42.2373 44.5621 41.997 44.6541Z" fill="#FFB000"/>
    <path d="M2.98877 100.9H11.5101C14.768 100.902 17.892 102.197 20.1952 104.502C22.4984 106.807 23.7923 109.933 23.7923 113.192V121.718" stroke="#D8BAA3" stroke-miterlimit="10" stroke-linecap="round"/>
    <path d="M97.83 95.6133H48.997C48.6331 95.6133 48.2841 95.7579 48.0268 96.0153C47.7695 96.2727 47.625 96.6219 47.625 96.986C47.6247 97.1664 47.66 97.3451 47.7288 97.5119C47.7976 97.6787 47.8986 97.8302 48.026 97.9579C48.1535 98.0856 48.3048 98.1869 48.4714 98.256C48.638 98.3251 48.8166 98.3607 48.997 98.3607H97.8279L97.83 95.6133Z" fill="white"/>
    <path d="M97.83 95.6133H48.997C48.6331 95.6133 48.2841 95.7579 48.0268 96.0153C47.7695 96.2727 47.625 96.6219 47.625 96.986V96.986C47.6247 97.1664 47.66 97.3451 47.7288 97.5119C47.7976 97.6787 47.8986 97.8302 48.026 97.9579C48.1535 98.0856 48.3048 98.1869 48.4714 98.256C48.638 98.3251 48.8166 98.3607 48.997 98.3607H97.8279" stroke="#D8BAA3" stroke-miterlimit="10"/>
    <path d="M76.6885 165.91L84.5717 99.8319C84.6241 99.5338 84.7783 99.263 85.0079 99.0658C85.2375 98.8686 85.5283 98.7571 85.8308 98.7503C86.1333 98.7436 86.4289 98.8419 86.667 99.0287C86.9052 99.2154 87.0713 99.4789 87.137 99.7744L96.9581 165.533" stroke="#D8BAA3" stroke-miterlimit="10" stroke-linecap="round"/>
    <path d="M92.3117 93.0684H55.3163C54.6478 93.0684 54.106 93.6105 54.106 94.2793C54.106 94.948 54.6478 95.4902 55.3163 95.4902H92.3117C92.9802 95.4902 93.5221 94.948 93.5221 94.2793C93.5221 93.6105 92.9802 93.0684 92.3117 93.0684Z" fill="white" stroke="#D8BAA3" stroke-miterlimit="10"/>
    <path d="M91.0672 93.029H63.5334C63.3757 93.0374 63.2185 93.0054 63.0766 92.9361C62.9347 92.8669 62.8128 92.7626 62.7223 92.6331C62.6319 92.5036 62.5759 92.3533 62.5596 92.1961C62.5434 92.039 62.5674 91.8804 62.6294 91.7351L70.4062 75.1847C70.638 74.7143 70.9985 74.3196 71.4459 74.0464C71.8933 73.7733 72.4092 73.6329 72.9333 73.6418H100.467C100.625 73.6338 100.782 73.666 100.923 73.7355C101.065 73.8049 101.186 73.9092 101.277 74.0386C101.367 74.168 101.423 74.3183 101.439 74.4752C101.455 74.6321 101.431 74.7906 101.369 74.9357L93.5921 91.4861C93.3605 91.9561 93.0003 92.3507 92.5533 92.6238C92.1063 92.8969 91.5909 93.0375 91.0672 93.029Z" fill="white" stroke="#D8BAA3" stroke-miterlimit="10"/>
    <path d="M170.588 0C175.331 0 179.968 1.40713 183.911 4.04346C187.855 6.67979 190.929 10.4269 192.744 14.811C194.559 19.195 195.034 24.0191 194.109 28.6732C193.183 33.3273 190.899 37.6023 187.545 40.9577C184.192 44.3131 179.918 46.5982 175.267 47.524C170.615 48.4497 165.793 47.9746 161.411 46.1586C157.029 44.3427 153.283 41.2675 150.648 37.322C148.013 33.3764 146.606 28.7377 146.606 23.9925C146.606 17.6293 149.133 11.5267 153.63 7.02724C158.128 2.52777 164.228 0 170.588 0V0Z" fill="url(#paint0_linear_672_598)"/>
    <path d="M172.324 7.9501C171.685 5.15162 174.717 3.00221 177.841 4.477C185.195 7.9501 180.928 13.1491 178.29 12.5894C176.953 12.4789 175.677 11.9813 174.617 11.1576C173.558 10.3338 172.761 9.21929 172.324 7.9501Z" fill="url(#paint1_linear_672_598)"/>
    <path d="M174.107 25.5924C170.672 27.2438 170.172 27.1544 162.595 20.953C151.164 11.5893 161.957 3.03849 173.548 7.59694C186.098 13.1152 181.893 21.8511 174.107 25.5924Z" fill="url(#paint2_linear_672_598)"/>
    <path d="M174.428 32.1517C173.256 34.7054 171.763 35.9823 170.599 35.9823C169.436 35.9823 167.934 34.7054 166.77 32.1517V28.9595C166.77 28.9595 166.249 28.9744 165.892 28.9595C162.135 28.7914 160.884 22.773 161.472 16.7526C161.901 12.3452 165.634 18.3955 171.71 14.1562C171.469 18.7956 173.469 18.3146 174.347 17.7549C178.35 15.9162 178.425 23.4327 174.475 22.8518C174.476 22.9312 174.461 26.0312 174.428 32.1517Z" fill="url(#paint3_linear_672_598)"/>
    <path d="M166.751 28.9506C168.721 28.6187 170.572 27.7871 172.129 26.5352C171.761 27.6808 171.046 28.6833 170.082 29.403C169.118 30.1228 167.954 30.524 166.751 30.5509V28.9506Z" fill="#FF9768"/>
    <path d="M165.43 33.0814C165.43 33.0814 165.673 31.4151 166.247 31.2725C166.821 31.1299 170.118 31.1129 170.123 31.7513C170.123 31.8684 170.235 33.1282 170.614 33.1282C170.993 33.1282 171.088 31.8705 171.088 31.7513C171.088 31.1129 174.379 31.1363 174.964 31.2725C175.549 31.4087 175.768 33.0835 175.768 33.0835C175.768 33.0835 184.389 37.1504 185.3 38.8869C186.437 42.2354 187.03 45.7445 187.057 49.2807H154.122C154.15 45.7444 154.744 42.2353 155.881 38.8869C156.79 37.1504 165.43 33.0814 165.43 33.0814Z" fill="url(#paint4_linear_672_598)"/>
    <path d="M172.284 12.7046C171.241 14.7974 170.772 17.1299 170.927 19.4633C171.081 21.7967 171.853 24.0471 173.162 25.9841C173.721 27.1343 173.971 28.4104 173.888 29.6867C173.804 30.963 173.389 32.1954 172.683 33.2623C173.602 32.5781 174.343 31.6829 174.844 30.6521C175.344 29.6214 175.59 28.4853 175.559 27.3397C175.559 23.2601 172.681 20.7021 175.081 17.3375C177.48 13.973 174.84 6.30533 172.284 12.7046Z" fill="url(#paint5_linear_672_598)"/>
    <path d="M105.922 45.4163C103.973 45.4163 102.069 45.9943 100.449 47.0773C98.8286 48.1603 97.5659 49.6997 96.8204 51.5006C96.0749 53.3016 95.8799 55.2833 96.2602 57.1951C96.6405 59.1069 97.5789 60.8629 98.9568 62.2411C100.335 63.6193 102.09 64.5578 104.001 64.9378C105.912 65.3179 107.893 65.1224 109.693 64.3761C111.493 63.6299 113.031 62.3664 114.113 60.7454C115.195 59.1244 115.773 57.2188 115.772 55.2695C115.772 52.656 114.734 50.1498 112.886 48.3021C111.039 46.4543 108.534 45.4163 105.922 45.4163Z" fill="url(#paint6_linear_672_598)"/>
    <path d="M101.029 55.8463C100.592 54.6936 100.489 53.4412 100.73 52.2323C100.972 51.0235 101.549 49.9071 102.395 49.0108C103.007 48.547 103.712 48.2208 104.461 48.0546C105.211 47.8883 105.988 47.8859 106.738 48.0476C107.489 48.2092 108.196 48.5311 108.811 48.9911C109.426 49.4512 109.934 50.0386 110.301 50.7133C110.569 51.2858 110.203 52.1838 109.484 52.1519C109.202 52.1391 109.027 53.0351 108.863 53.5905C109.097 55.8463 111.135 55.8825 112.18 57.6063C113.443 59.7323 111.875 62.8691 108.119 62.8691C104.362 62.8691 102.207 59.7578 101.029 55.8463Z" fill="url(#paint7_linear_672_598)"/>
    <path d="M99.3696 60.6879C98.9623 62.1351 98.7183 63.6234 98.6421 65.125H112.345C112.268 63.6233 112.022 62.1349 111.613 60.6879C110.882 59.2556 105.494 57.4127 105.494 57.4127C105.494 57.4127 100.106 59.2556 99.3696 60.6879Z" fill="url(#paint8_linear_672_598)"/>
    <path d="M104.196 58.6206C104.692 58.8852 105.238 59.0412 105.798 59.0781C106.338 59.0468 106.864 58.8902 107.334 58.6206V57.182C107.498 57.208 107.665 57.218 107.831 57.2118C109.399 57.2118 109.991 54.9283 109.684 52.149C109.489 52.149 109.031 52.149 108.378 51.2339C108.542 52.5107 106.647 52.3128 105.928 51.2998C106.287 52.5086 105.341 53.3258 104.524 52.8363C102.922 51.8744 102.562 54.8049 104.196 54.8304V58.6206Z" fill="url(#paint9_linear_672_598)"/>
    <g style="mix-blend-mode:multiply" opacity="0.782">
        <path d="M107.333 57.1816C106.523 57.0327 105.747 56.7339 105.046 56.3005C105.288 56.7004 105.621 57.0367 106.019 57.2811C106.417 57.5255 106.867 57.6709 107.333 57.7051V57.1816Z" fill="#FFD7B8"/>
    </g>
    <path d="M105.764 59.0113C105.292 58.99 104.198 58.7581 104.198 58.258V57.8323C103.941 57.9438 103.72 58.1252 103.56 58.3559C103.419 58.5024 103.323 58.6864 103.283 58.8859C103.244 59.0854 103.262 59.2922 103.336 59.4817C103.41 59.6712 103.537 59.8354 103.701 59.955C103.866 60.0745 104.061 60.1444 104.264 60.1562C104.577 60.1329 104.879 60.0302 105.142 59.8578C105.404 59.6854 105.618 59.449 105.764 59.1709C105.91 59.4493 106.125 59.6859 106.387 59.8583C106.65 60.0307 106.952 60.1333 107.266 60.1562C107.469 60.1448 107.664 60.0754 107.829 59.9563C107.994 59.8371 108.121 59.6732 108.195 59.484C108.27 59.2948 108.289 59.0882 108.25 58.8886C108.21 58.689 108.115 58.5049 107.974 58.358C107.814 58.1273 107.593 57.9459 107.336 57.8345V58.2601C107.336 58.7602 106.213 58.9922 105.766 59.0134L105.764 59.0113Z" fill="white"/>
    <path d="M147.89 59.9788C144.756 59.9788 141.693 60.9084 139.088 62.6501C136.482 64.3918 134.451 66.8674 133.252 69.7638C132.052 72.6602 131.738 75.8473 132.349 78.9223C132.96 81.9972 134.469 84.8219 136.684 87.039C138.9 89.2562 141.723 90.7663 144.796 91.3785C147.87 91.9906 151.056 91.6773 153.951 90.4781C156.846 89.2789 159.321 87.2478 161.063 84.6414C162.804 82.0351 163.735 78.9706 163.735 75.8354C163.736 73.7533 163.326 71.6915 162.53 69.7677C161.734 67.8439 160.567 66.0958 159.096 64.6234C157.624 63.1509 155.878 61.9828 153.955 61.1859C152.032 60.389 149.971 59.9788 147.89 59.9788Z" fill="url(#paint10_linear_672_598)"/>
    <path d="M144.66 78.4348V81.3887H151.407C151.407 81.3887 151.394 77.0218 151.407 74.1318C152.917 72.1718 152.917 70.9396 151.724 69.6819C150.531 68.4241 142.024 67.7836 142.024 67.7836C142.024 67.7836 141.386 73.9232 141.286 75.5895C141.246 76.2599 140.812 78.437 142.499 78.437L144.66 78.4348Z" fill="url(#paint11_linear_672_598)"/>
    <path d="M145.749 78.3549C146.969 78.2026 148.139 77.781 149.176 77.1206C148.866 77.802 148.389 78.3945 147.79 78.8437C147.192 79.2929 146.49 79.5844 145.749 79.6914V78.3549Z" fill="#F08956"/>
    <path d="M150.033 70.9697C150.199 70.7935 150.42 70.6794 150.66 70.6461C150.9 70.6129 151.144 70.6624 151.351 70.7866C152.717 71.4953 151.811 74.2321 150.288 74.1789C149.76 74.1597 150.003 75.211 151.411 75.9048C151.411 74.7981 153.098 72.055 153.245 69.5587C154.946 68.9203 154.521 66.3963 153.355 66.3963C153.536 64.066 149.824 62.8785 148.386 64.2086C146.925 62.455 143.234 63.3573 143.011 64.8726C140.473 63.517 138.806 67.4136 141.182 68.916C143.28 69.6822 145.523 69.973 147.748 69.7673C149.333 69.7673 148.42 73.4766 147.927 74.6747C147.289 76.2048 143.762 76.4155 142.656 76.2559C141.792 76.1325 141.337 75.7813 141.286 75.5707C140.494 77.6967 141.496 78.9629 143.077 78.9629C145.766 78.9629 148.454 78.1712 148.875 76.2197C148.98 74.4193 149.371 72.6471 150.033 70.9697Z" fill="white"/>
    <path d="M136.963 85.5347C136.096 87.6913 135.562 89.9676 135.381 92.2852H160.683C160.502 89.9677 159.969 87.6914 159.103 85.5347C158.437 84.1791 152.251 81.5679 152.251 81.5679C152.251 81.5679 152.128 80.374 151.826 80.2038C149.299 80.0328 146.763 80.0328 144.236 80.2038C143.881 80.374 143.811 81.5679 143.811 81.5679C143.811 81.5679 137.627 84.1813 136.963 85.5347Z" fill="url(#paint12_linear_672_598)"/>
    <path d="M162.879 90.834V90.0274H134.613V90.834H162.879ZM162.879 88.8186V88.0121H134.613V88.8186H162.879ZM162.879 86.8033V85.9968H134.613V86.8012L162.879 86.8033ZM162.879 84.788V83.9814H134.613V84.7859L162.879 84.788Z" fill="#FFA789"/>
    <path d="M147.89 59.9788C144.756 59.9788 141.693 60.9084 139.088 62.6501C136.482 64.3918 134.451 66.8674 133.252 69.7638C132.052 72.6602 131.738 75.8473 132.349 78.9223C132.96 81.9972 134.469 84.8219 136.684 87.039C138.9 89.2562 141.723 90.7663 144.796 91.3785C147.87 91.9906 151.056 91.6773 153.951 90.4781C156.846 89.2789 159.321 87.2478 161.063 84.6414C162.804 82.0351 163.735 78.9706 163.735 75.8354C163.736 73.7533 163.326 71.6915 162.53 69.7677C161.734 67.8439 160.567 66.0958 159.096 64.6234C157.624 63.1509 155.878 61.9828 153.955 61.1859C152.032 60.389 149.971 59.9788 147.89 59.9788Z" fill="url(#paint13_linear_672_598)"/>
    <path d="M144.659 78.4348V81.3887H151.406C151.406 81.3887 151.393 77.0218 151.406 74.1318C152.916 72.1718 152.916 70.9396 151.723 69.6819C150.53 68.4241 142.023 67.7836 142.023 67.7836C142.023 67.7836 141.385 73.9232 141.285 75.5895C141.245 76.2599 140.811 78.437 142.498 78.437L144.659 78.4348Z" fill="url(#paint14_linear_672_598)"/>
    <path d="M145.748 78.3549C146.968 78.2026 148.138 77.781 149.175 77.1206C148.865 77.802 148.388 78.3945 147.789 78.8437C147.191 79.2929 146.489 79.5844 145.748 79.6914V78.3549Z" fill="#F08956"/>
    <path d="M150.033 70.9697C150.199 70.7935 150.42 70.6794 150.66 70.6461C150.9 70.6129 151.144 70.6624 151.351 70.7866C152.717 71.4953 151.811 74.2321 150.288 74.1789C149.76 74.1597 150.003 75.211 151.411 75.9048C151.411 74.7981 153.098 72.055 153.245 69.5587C154.946 68.9203 154.521 66.3963 153.355 66.3963C153.536 64.066 149.824 62.8785 148.386 64.2086C146.925 62.455 143.234 63.3573 143.011 64.8726C140.473 63.517 138.806 67.4136 141.182 68.916C143.28 69.6822 145.523 69.973 147.748 69.7673C149.333 69.7673 148.42 73.4766 147.927 74.6747C147.289 76.2048 143.762 76.4155 142.656 76.2559C141.792 76.1325 141.337 75.7813 141.286 75.5707C140.494 77.6967 141.496 78.9629 143.077 78.9629C145.766 78.9629 148.454 78.1712 148.875 76.2197C148.98 74.4193 149.371 72.6471 150.033 70.9697Z" fill="white"/>
    <path d="M136.963 85.5347C136.096 87.6913 135.562 89.9676 135.381 92.2852H160.683C160.502 89.9677 159.969 87.6914 159.103 85.5347C158.437 84.1791 152.251 81.5679 152.251 81.5679C152.251 81.5679 152.128 80.374 151.826 80.2038C149.299 80.0328 146.763 80.0328 144.236 80.2038C143.881 80.374 143.811 81.5679 143.811 81.5679C143.811 81.5679 137.627 84.1813 136.963 85.5347Z" fill="url(#paint15_linear_672_598)"/>
    <defs>
        <linearGradient id="paint0_linear_672_598" x1="170.588" y1="0" x2="170.588" y2="47.985" gradientUnits="userSpaceOnUse">
            <stop stop-color="#806A6A"/>
            <stop offset="1" stop-color="#665654"/>
        </linearGradient>
        <linearGradient id="paint1_linear_672_598" x1="177.089" y1="3.99805" x2="177.089" y2="12.6311" gradientUnits="userSpaceOnUse">
            <stop stop-color="#1D0024"/>
            <stop offset="1" stop-color="#100014"/>
        </linearGradient>
        <linearGradient id="paint2_linear_672_598" x1="169.621" y1="6.33398" x2="169.621" y2="26.5016" gradientUnits="userSpaceOnUse">
            <stop stop-color="#1D0024"/>
            <stop offset="1" stop-color="#100014"/>
        </linearGradient>
        <linearGradient id="paint3_linear_672_598" x1="169.364" y1="14.1562" x2="169.364" y2="35.9823" gradientUnits="userSpaceOnUse">
            <stop stop-color="#F7B186"/>
            <stop offset="1" stop-color="#FFC299"/>
        </linearGradient>
        <linearGradient id="paint4_linear_672_598" x1="170.589" y1="49.2807" x2="170.589" y2="31.1914" gradientUnits="userSpaceOnUse">
            <stop stop-color="#FCF2EB"/>
            <stop offset="1" stop-color="#FFF9F5"/>
        </linearGradient>
        <linearGradient id="paint5_linear_672_598" x1="173.461" y1="10.2344" x2="173.461" y2="33.2623" gradientUnits="userSpaceOnUse">
            <stop stop-color="#1D0024"/>
            <stop offset="1" stop-color="#100014"/>
        </linearGradient>
        <linearGradient id="paint6_linear_672_598" x1="105.922" y1="65.127" x2="105.922" y2="45.4163" gradientUnits="userSpaceOnUse">
            <stop stop-color="#FFC9B3"/>
            <stop offset="1" stop-color="#FFD2C2"/>
        </linearGradient>
        <linearGradient id="paint7_linear_672_598" x1="106.607" y1="47.9281" x2="106.607" y2="62.8691" gradientUnits="userSpaceOnUse">
            <stop stop-color="#130027"/>
            <stop offset="1" stop-color="#130017"/>
        </linearGradient>
        <linearGradient id="paint8_linear_672_598" x1="105.494" y1="65.125" x2="105.494" y2="57.4127" gradientUnits="userSpaceOnUse">
            <stop stop-color="#E6864E"/>
            <stop offset="1" stop-color="#E67240"/>
        </linearGradient>
        <linearGradient id="paint9_linear_672_598" x1="106.448" y1="51.2339" x2="106.448" y2="59.0781" gradientUnits="userSpaceOnUse">
            <stop stop-color="#C36F0B"/>
            <stop offset="1" stop-color="#C57515"/>
        </linearGradient>
        <linearGradient id="paint10_linear_672_598" x1="163.735" y1="59.9788" x2="132.031" y2="91.6691" gradientUnits="userSpaceOnUse">
            <stop stop-color="#806A6A"/>
            <stop offset="1" stop-color="#665654"/>
        </linearGradient>
        <linearGradient id="paint11_linear_672_598" x1="152.583" y1="67.7836" x2="139.193" y2="78.98" gradientUnits="userSpaceOnUse">
            <stop stop-color="#F7B186"/>
            <stop offset="1" stop-color="#FFC299"/>
        </linearGradient>
        <linearGradient id="paint12_linear_672_598" x1="148.032" y1="92.2852" x2="148.032" y2="80.0755" gradientUnits="userSpaceOnUse">
            <stop stop-color="#FFC9B3"/>
            <stop offset="1" stop-color="#FFD2C2"/>
        </linearGradient>
        <linearGradient id="paint13_linear_672_598" x1="163.735" y1="59.9788" x2="132.031" y2="91.6691" gradientUnits="userSpaceOnUse">
            <stop stop-color="#806A6A"/>
            <stop offset="1" stop-color="#665654"/>
        </linearGradient>
        <linearGradient id="paint14_linear_672_598" x1="152.582" y1="67.7836" x2="139.192" y2="78.98" gradientUnits="userSpaceOnUse">
            <stop stop-color="#F7B186"/>
            <stop offset="1" stop-color="#FFC299"/>
        </linearGradient>
        <linearGradient id="paint15_linear_672_598" x1="148.032" y1="92.2852" x2="148.032" y2="80.0755" gradientUnits="userSpaceOnUse">
            <stop stop-color="#FFC9B3"/>
            <stop offset="1" stop-color="#FFD2C2"/>
        </linearGradient>
    </defs>
</svg>
