<!--
 * Copyright (c) 2021, WSO2 Inc. (http://www.wso2.com). All Rights Reserved.
 *
 * This software is the property of WSO2 Inc. and its suppliers, if any.
 * Dissemination of any information or reproduction of any material contained
 * herein in any form is strictly forbidden, unless permitted by WSO2 expressly.
 * You may not alter or remove any copyright or other notice from copies of this content."
-->

<svg id="setup-social-connections" class="icon" width="175" height="159" viewBox="0 0 175 159" fill="none" xmlns="http://www.w3.org/2000/svg">
    <g clip-path="url(#clip0_672_468)">
        <path d="M92.0763 9.65948C50.7254 9.65948 17.2039 43.1714 17.2039 84.5104C17.2039 125.849 50.7254 159.361 92.0763 159.361C133.427 159.361 166.949 125.849 166.949 84.5104C166.949 43.1714 133.427 9.65948 92.0763 9.65948Z" fill="#F5F5F5"/>
        <g filter="url(#filter0_d_672_468)">
            <path d="M122.646 76.3512C112.252 76.3512 103.825 84.7862 103.825 95.1912C103.825 105.596 112.252 114.031 122.646 114.031C133.041 114.031 141.467 105.596 141.467 95.1912C141.467 84.7862 133.041 76.3512 122.646 76.3512Z" fill="#212A32"/>
        </g>
        <path d="M120.846 104.057H124.446C124.675 104.057 124.86 103.871 124.86 103.642V86.7402C124.86 86.5111 124.675 86.3253 124.446 86.3253H120.846C120.618 86.3253 120.432 86.5111 120.432 86.7402V103.642C120.432 103.871 120.618 104.057 120.846 104.057Z" fill="white"/>
        <path d="M131.503 96.9926V93.3895C131.503 93.1604 131.317 92.9746 131.088 92.9746H114.204C113.975 92.9746 113.79 93.1604 113.79 93.3895V96.9926C113.79 97.2217 113.975 97.4074 114.204 97.4074H131.088C131.317 97.4074 131.503 97.2217 131.503 96.9926Z" fill="white"/>
        <path d="M155.976 97.906L155.122 101.1L151.997 101.167C151.051 99.4047 150.549 97.4385 150.533 95.4384C150.517 93.4383 150.988 91.4645 151.906 89.6875L154.689 90.1947L155.907 92.966C155.359 94.571 155.383 96.3167 155.975 97.906H155.976Z" fill="#FBBB00"/>
        <path d="M174.88 93.0449C175.297 95.2368 175.11 97.5009 174.338 99.5943C173.567 101.688 172.241 103.531 170.503 104.928L166.998 104.748L166.502 101.649C167.949 100.8 169.06 99.4795 169.651 97.9082H163.084V93.0449H174.88Z" fill="#518EF8"/>
        <path d="M170.5 104.927C169.095 106.055 167.459 106.861 165.708 107.286C163.957 107.711 162.134 107.745 160.368 107.386C158.603 107.027 156.937 106.284 155.491 105.209C154.044 104.134 152.851 102.754 151.997 101.166L155.976 97.9062C156.35 98.9032 156.937 99.8064 157.696 100.553C158.455 101.299 159.367 101.87 160.37 102.227C161.372 102.583 162.44 102.716 163.499 102.616C164.558 102.516 165.583 102.186 166.501 101.648L170.5 104.927Z" fill="#28B446"/>
        <path d="M170.652 85.8777L166.673 89.1386C165.742 88.5575 164.691 88.1943 163.599 88.0759C162.508 87.9576 161.404 88.0871 160.369 88.4549C159.334 88.8226 158.396 89.4192 157.623 90.2002C156.851 90.9812 156.264 91.9265 155.907 92.9657L151.906 89.6852C152.75 88.0545 153.948 86.6339 155.413 85.5276C156.877 84.4214 158.571 83.6576 160.369 83.2924C162.167 82.9272 164.024 82.9699 165.804 83.4173C167.583 83.8646 169.24 84.7054 170.652 85.8777Z" fill="#F14336"/>
        <path d="M117.64 14.88C115.034 10.3651 111.289 6.6153 106.779 4.00643C102.236 1.34332 97.0593 -0.0406973 91.7955 0.000911249C86.5341 -0.0392317 81.3597 1.34473 76.8195 4.00643C72.3094 6.61518 68.5637 10.3651 65.958 14.88C63.2981 19.4256 61.9151 24.6064 61.9555 29.8743C61.8933 36.1925 63.8918 42.3585 67.6479 47.4365C71.2763 52.5134 76.4317 56.2956 82.3607 58.2303C82.6228 58.3108 82.9002 58.3281 83.1703 58.2809C83.4404 58.2337 83.6955 58.1232 83.9148 57.9585C84.078 57.812 84.2076 57.6318 84.2947 57.4304C84.3818 57.229 84.4243 57.0111 84.4194 56.7917C84.4194 56.7136 84.4129 56.0135 84.3997 54.6915C84.3866 53.3694 84.38 52.2158 84.38 51.2305L83.4859 51.385C82.7727 51.4986 82.0504 51.5441 81.3287 51.5209C80.4227 51.5046 79.5196 51.4134 78.6286 51.2481C77.6801 51.0734 76.7872 50.6736 76.0249 50.0823C75.2255 49.4775 74.6291 48.6432 74.3153 47.6906L73.9267 46.7956C73.5998 46.0878 73.189 45.422 72.7031 44.8125C72.2676 44.1902 71.6877 43.6831 71.0132 43.3346L70.7407 43.1396C70.5543 43.0049 70.3849 42.8482 70.2361 42.6729C70.0927 42.5102 69.975 42.3266 69.8869 42.1283C69.8089 41.9465 69.8735 41.7971 70.0807 41.6803C70.4382 41.5367 70.8238 41.4771 71.208 41.5061L71.9851 41.6222C72.6797 41.8085 73.3327 42.1252 73.9091 42.5557C74.6797 43.0812 75.3236 43.7721 75.7938 44.5781C76.3077 45.5499 77.0476 46.3837 77.951 47.0092C78.6969 47.5357 79.5831 47.8268 80.4957 47.8452C81.2387 47.8553 81.9809 47.7903 82.7109 47.6512C83.315 47.5271 83.9022 47.3311 84.4598 47.0673C84.5882 45.545 85.2646 44.1212 86.3632 43.0608C85.0197 42.9289 83.6883 42.6948 82.3804 42.3607C81.1044 42.0094 79.8775 41.4996 78.7281 40.8433C77.5224 40.1872 76.4575 39.3002 75.5938 38.2328C74.6695 37.008 73.978 35.6235 73.5537 34.1484C72.9934 32.2553 72.7247 30.2876 72.757 28.3134C72.6927 25.343 73.795 22.4659 75.827 20.3002C74.872 17.7226 74.9695 14.8722 76.0984 12.366C77.2396 12.1814 78.41 12.3652 79.4399 12.8908C80.5582 13.3063 81.643 13.807 82.685 14.3884C83.3716 14.8033 83.9221 15.1535 84.3365 15.4391C89.2188 14.0915 94.3743 14.0915 99.2565 15.4391L100.733 14.5056C101.868 13.8229 103.065 13.2495 104.308 12.7933C105.285 12.3183 106.388 12.1686 107.456 12.366C108.027 13.603 108.348 14.9406 108.402 16.3021C108.455 17.6636 108.239 19.0223 107.767 20.3002C109.799 22.466 110.901 25.343 110.837 28.3134C110.868 30.2937 110.599 32.2672 110.04 34.1671C109.621 35.6478 108.922 37.0342 107.982 38.2514C107.105 39.3046 106.037 40.1822 104.834 40.8381C103.684 41.4943 102.457 42.004 101.181 42.3555C99.8727 42.6901 98.5412 42.9245 97.1978 43.0566C98.5447 44.2231 99.2182 46.064 99.2182 48.5795V56.7866C99.2127 57.0043 99.2531 57.2208 99.3369 57.4218C99.4206 57.6229 99.5457 57.804 99.7041 57.9534C99.9192 58.1188 100.171 58.2298 100.438 58.2771C100.705 58.3244 100.98 58.3066 101.239 58.2251C107.168 56.2907 112.323 52.5084 115.951 47.4314C119.706 42.3542 121.704 36.1899 121.644 29.8732C121.682 24.6058 120.299 19.4257 117.64 14.88Z" fill="black"/>
        <path d="M164.683 18.8652H138.499C137.342 18.8663 136.232 19.3269 135.414 20.146C134.596 20.965 134.136 22.0755 134.135 23.2338V49.4449C134.135 50.6039 134.594 51.7155 135.413 52.5354C136.231 53.3553 137.341 53.8165 138.499 53.8176H164.683C165.257 53.8176 165.825 53.7045 166.355 53.4847C166.885 53.265 167.367 52.9429 167.772 52.5368C168.178 52.1308 168.5 51.6488 168.719 51.1182C168.939 50.5877 169.052 50.0191 169.052 49.4449V23.2338C169.051 22.0748 168.59 20.9636 167.771 20.1445C166.952 19.3254 165.841 18.8652 164.683 18.8652V18.8652Z" fill="#1976D2"/>
        <path d="M163.592 36.3341H158.137V31.9708C158.137 30.7645 159.114 30.8786 160.319 30.8786H162.501V25.418H158.137C156.401 25.418 154.736 26.1083 153.508 27.3372C152.281 28.5661 151.591 30.2328 151.591 31.9708V36.3341H147.227V41.7999H151.591V53.8134H158.137V41.7999H161.41L163.592 36.3341Z" fill="#FAFAFA"/>
        <path d="M8.26434 108.279C11.7768 122.643 16.6755 147.742 16.8133 151.146C16.9511 154.549 40.7744 156.724 51.3779 153.595C51.3779 153.595 51.4815 120.583 52.2182 111.446C61.9701 116.273 71.4899 122.366 75.3463 122.366C80.704 120.878 103.894 113.35 105.663 111.446V98.9649C96.0503 102.122 86.2703 104.743 76.3679 106.816C76.3679 106.816 62.3928 93.9398 54.939 87.9399L54.9069 87.9119C50.0123 83.3898 37.3065 81.9399 34.4582 81.2388C31.5126 80.5127 16.489 78.4727 16.489 78.4727C11.3923 81.7708 5.1384 95.4852 8.26434 108.279Z" fill="#FF8C00"/>
        <path d="M37.1759 68.1776C36.633 70.3557 34.4581 79.7939 34.4581 81.2459C34.4581 82.6979 19.4968 81.0177 16.5967 78.4777C20.4678 73.7425 23.0044 68.0577 23.9437 62.0117L37.1759 68.1776Z" fill="#FFCFC9"/>
        <path d="M25.7816 63.0184C25.7816 63.0184 30.3405 72.5489 39.8282 71.7887C40.1451 71.7639 40.451 71.6608 40.7184 71.4887C40.9859 71.3166 41.2065 71.0808 41.3606 70.8024C42.6619 68.4366 46.1142 61.779 45.9888 57.8306C45.8324 52.9777 43.7695 43.9782 43.7695 43.9782C43.7695 43.9782 32.2231 41.5845 25.8126 52.3015C24.7606 53.8889 24.197 55.7503 24.1914 57.6553C24.1859 59.5602 24.7388 61.425 25.7816 63.0184Z" fill="#FFCFC9"/>
        <path d="M34.1162 54.4121H50.8877" stroke="#D8BAA3" stroke-miterlimit="10"/>
        <path d="M49.1121 60.7519C50.0202 60.7519 50.7564 58.7092 50.7564 56.1894C50.7564 53.6696 50.0202 51.627 49.1121 51.627C48.204 51.627 47.4678 53.6696 47.4678 56.1894C47.4678 58.7092 48.204 60.7519 49.1121 60.7519Z" stroke="#D8BAA3" stroke-miterlimit="10"/>
        <path d="M3.89698 72.2462C14.1179 74.9326 24.5761 76.6153 35.1233 77.2702C35.1233 77.2702 41.3617 70.8035 34.1742 62.8226C30.065 58.259 35.1015 52.4769 35.1015 52.4769C39.208 51.3172 43.4363 50.6444 47.6996 50.472C49.9842 47.1106 50.0464 42.3376 43.695 37.6247C37.1147 32.75 24.2162 27.8754 16.6101 35.6002C12.2501 40.0102 15.2082 48.851 9.62872 51.5331C-7.93231 59.9538 3.89698 72.2462 3.89698 72.2462Z" fill="#263238"/>
        <path d="M41.7076 37.6169C35.1211 32.7422 22.2287 27.8676 14.6226 35.5924C10.2627 40.0024 12.7845 50.3781 7.21338 53.0602" stroke="#263238" stroke-width="3" stroke-miterlimit="10"/>
        <path d="M49.2319 50.4655C51.5166 47.104 50.5592 41.3384 43.4629 37.8359" stroke="#263238" stroke-width="3" stroke-miterlimit="10"/>
        <path d="M38.1278 77.2417C38.1278 77.2417 43.4907 70.3778 35.7924 62.8885C31.3869 58.6071 35.1614 51.627 35.1614 51.627" stroke="#263238" stroke-width="3" stroke-miterlimit="10"/>
        <path d="M109.651 101.297C109.651 101.297 112.767 98.2884 114.645 97.808C116.523 97.3277 122.64 95.0206 123.064 96.2146C123.259 96.7654 118.629 99.1055 118.629 99.1055C118.938 99.2007 119.211 99.3885 119.411 99.6436C119.611 99.8987 119.729 100.209 119.747 100.533C119.765 101.635 120.281 101.192 120.743 102.216C121.205 103.24 120.354 103.592 121.223 104.503C121.852 105.155 121.068 105.927 119.913 106.356C118.358 106.946 112.497 107.239 111.814 106.06L105.655 109.032L105.651 102.216L109.651 101.297Z" fill="#FFCFC9"/>
        <path opacity="0.39" d="M51.7599 112.21C45.4179 108.022 41.634 103.927 37.9517 100.311" stroke="#D8BAA3" stroke-miterlimit="10"/>
    </g>
    <defs>
        <filter id="filter0_d_672_468" x="97.8252" y="73.3516" width="49.6421" height="49.6797" filterUnits="userSpaceOnUse" color-interpolation-filters="sRGB">
            <feFlood flood-opacity="0" result="BackgroundImageFix"/>
            <feColorMatrix in="SourceAlpha" type="matrix" values="0 0 0 0 0 0 0 0 0 0 0 0 0 0 0 0 0 0 127 0" result="hardAlpha"/>
            <feOffset dy="3"/>
            <feGaussianBlur stdDeviation="3"/>
            <feColorMatrix type="matrix" values="0 0 0 0 0 0 0 0 0 0 0 0 0 0 0 0 0 0 0.078 0"/>
            <feBlend mode="normal" in2="BackgroundImageFix" result="effect1_dropShadow_672_468"/>
            <feBlend mode="normal" in="SourceGraphic" in2="effect1_dropShadow_672_468" result="shape"/>
        </filter>
        <clipPath id="clip0_672_468">
            <rect width="175" height="159" fill="white"/>
        </clipPath>
    </defs>
</svg>
