<!--
 * Copyright (c) 2022, WSO2 Inc. (http://www.wso2.com). All Rights Reserved.
 *
 * This software is the property of WSO2 Inc. and its suppliers, if any.
 * Dissemination of any information or reproduction of any material contained
 * herein in any form is strictly forbidden, unless permitted by WSO2 expressly.
 * You may not alter or remove any copyright or other notice from copies of this content."
-->

<svg class="icon" width="208" height="155" viewBox="0 0 208 155" fill="none" xmlns="http://www.w3.org/2000/svg">
    <path d="M207.497 135.869H0V135.973H207.497V135.869Z" fill="#EBEBEB"/>
    <path d="M186.706 142.547H172.961V142.651H186.706V142.547Z" fill="#EBEBEB"/>
    <path d="M113.384 141.246H108.035V141.35H113.384V141.246Z" fill="#EBEBEB"/>
    <path d="M145.111 141.688H133.848V141.791H145.111V141.688Z" fill="#EBEBEB"/>
    <path d="M172.546 138.695H149.261V138.799H172.546V138.695Z" fill="#EBEBEB"/>
    <path d="M32.7803 143.496H21.7705V143.6H32.7803V143.496Z" fill="#EBEBEB"/>
    <path d="M46.0185 143.496H36.4736V143.6H46.0185V143.496Z" fill="#EBEBEB"/>
    <path d="M79.6 141.197H54.3643V141.301H79.6V141.197Z" fill="#EBEBEB"/>
    <path d="M98.3531 117.36H18.2219C17.5942 117.359 16.9925 117.109 16.549 116.665C16.1055 116.22 15.8564 115.618 15.8564 114.991V2.34887C15.8619 1.72472 16.1134 1.12794 16.5563 0.68815C16.9992 0.248356 17.5977 0.00106919 18.2219 0H98.3531C98.9815 0 99.5843 0.249655 100.029 0.694044C100.473 1.13843 100.723 1.74115 100.723 2.36961V114.991C100.723 115.619 100.473 116.222 100.029 116.666C99.5843 117.111 98.9815 117.36 98.3531 117.36ZM18.2219 0.0829991C17.6217 0.0840984 17.0464 0.323307 16.6224 0.748121C16.1983 1.17293 15.9602 1.74864 15.9602 2.34887V114.991C15.9602 115.591 16.1983 116.167 16.6224 116.591C17.0464 117.016 17.6217 117.255 18.2219 117.257H98.3531C98.9537 117.255 99.5294 117.016 99.9541 116.592C100.379 116.167 100.618 115.591 100.619 114.991V2.34887C100.618 1.74826 100.379 1.17256 99.9541 0.747867C99.5294 0.323172 98.9537 0.0840961 98.3531 0.0829991H18.2219Z" fill="#EBEBEB"/>
    <path d="M188.121 117.36H107.986C107.358 117.359 106.756 117.109 106.311 116.665C105.867 116.221 105.617 115.619 105.616 114.991V2.34887C105.623 1.72435 105.875 1.12757 106.319 0.687891C106.762 0.248211 107.361 0.00105752 107.986 0H188.121C188.745 0.00215983 189.342 0.24993 189.784 0.689607C190.226 1.12928 190.477 1.72544 190.482 2.34887V114.991C190.482 115.618 190.234 116.219 189.791 116.663C189.349 117.107 188.748 117.358 188.121 117.36ZM107.986 0.0829991C107.385 0.0840961 106.81 0.323172 106.385 0.747867C105.96 1.17256 105.721 1.74826 105.72 2.34887V114.991C105.721 115.591 105.96 116.167 106.385 116.592C106.81 117.016 107.385 117.255 107.986 117.257H188.121C188.722 117.255 189.297 117.016 189.722 116.592C190.147 116.167 190.386 115.591 190.387 114.991V2.34887C190.386 1.74826 190.147 1.17256 189.722 0.747867C189.297 0.323172 188.722 0.0840961 188.121 0.0829991H107.986Z" fill="#EBEBEB"/>
    <path d="M27.1821 51.6328L118.858 51.6328V5.29045L27.1821 5.29045V51.6328Z" fill="#E6E6E6"/>
    <path d="M24.2648 51.6328L117.643 51.6328V5.29045L24.2648 5.29045V51.6328Z" fill="#F0F0F0"/>
    <path d="M114.887 48.8784V8.04297L27.0159 8.04297V48.8784L114.887 48.8784Z" fill="white"/>
    <path d="M167.657 60.8703C168.002 60.8703 168.333 60.7336 168.577 60.4901C168.822 60.2467 168.959 59.9163 168.96 59.5714V19.317C168.961 19.1455 168.928 18.9756 168.862 18.8171C168.797 18.6585 168.701 18.5143 168.58 18.3929C168.459 18.2715 168.315 18.1751 168.157 18.1094C167.999 18.0436 167.829 18.0098 167.657 18.0098C167.313 18.0109 166.983 18.1481 166.74 18.3914C166.497 18.6348 166.359 18.9645 166.358 19.3087V59.5631C166.358 59.7342 166.391 59.9038 166.456 60.0621C166.521 60.2204 166.617 60.3643 166.737 60.4857C166.858 60.6071 167.001 60.7036 167.159 60.7696C167.317 60.8355 167.486 60.8698 167.657 60.8703Z" fill="#F5F5F5"/>
    <path d="M158.304 62.4069H177.016C177.015 61.5928 176.691 60.8123 176.115 60.2366C175.539 59.6609 174.759 59.337 173.945 59.3359H161.375C160.56 59.3359 159.779 59.6595 159.203 60.2354C158.627 60.8113 158.304 61.5924 158.304 62.4069Z" fill="#F0F0F0"/>
    <path d="M160.905 36.5199C161.078 36.5188 161.242 36.4497 161.363 36.3276C161.485 36.2056 161.553 36.0405 161.553 35.8684V16.0732C161.553 15.9015 161.485 15.7368 161.363 15.6154C161.242 15.494 161.077 15.4258 160.905 15.4258C160.82 15.4252 160.735 15.4416 160.656 15.4739C160.577 15.5062 160.506 15.5538 160.445 15.6139C160.384 15.6741 160.336 15.7457 160.304 15.8245C160.271 15.9033 160.254 15.9878 160.254 16.0732V35.8725C160.255 36.0446 160.324 36.2093 160.446 36.3306C160.568 36.4519 160.733 36.5199 160.905 36.5199Z" fill="#F0F0F0"/>
    <path d="M182.622 22.9245C183.143 22.9223 183.656 22.8018 184.124 22.5721C184.591 22.3425 185 22.0096 185.32 21.5987C185.639 21.1878 185.862 20.7096 185.969 20.2002C186.077 19.6908 186.068 19.1636 185.942 18.6583C184.573 13.1597 180.39 4.28711 167.645 4.28711C154.901 4.28711 150.73 13.1597 149.365 18.6749C149.238 19.1803 149.228 19.7078 149.336 20.2175C149.443 20.7272 149.665 21.2058 149.985 21.6169C150.305 22.028 150.714 22.3609 151.182 22.5903C151.65 22.8197 152.164 22.9397 152.685 22.9411L182.622 22.9245Z" fill="#E0E0E0"/>
    <path d="M186.054 62.4531H150.825V135.866H186.054V62.4531Z" fill="#E6E6E6"/>
    <path d="M178.502 135.869H186.054V123.203H170.575L178.502 135.869Z" fill="#F5F5F5"/>
    <path d="M113.301 62.4531H78.0723V135.866H113.301V62.4531Z" fill="#E6E6E6"/>
    <path d="M186.059 62.4531H106.712V131.508H186.059V62.4531Z" fill="#F5F5F5"/>
    <path d="M180.195 68.8633H112.571V83.3341H180.195V68.8633Z" fill="#F0F0F0"/>
    <path d="M114.269 135.869H106.712V123.203H122.191L114.269 135.869Z" fill="#F5F5F5"/>
    <path d="M180.195 89.7461H112.571V104.217H180.195V89.7461Z" fill="#F0F0F0"/>
    <path d="M180.195 110.629H112.571V125.1H180.195V110.629Z" fill="#F0F0F0"/>
    <path d="M33.9843 77.4883H81.8953L81.1815 135.87H33.2705L33.9843 77.4883Z" fill="#E0E0E0"/>
    <path d="M36.1791 70.8438H83.1315L78.0188 135.869H31.0664L36.1791 70.8438Z" fill="#F0F0F0"/>
    <path d="M33.7555 70.8438H80.7079L75.5911 135.869H28.6387L33.7555 70.8438Z" fill="#F5F5F5"/>
    <path d="M69.9347 131.859L74.4207 74.8516H39.4119L34.9258 131.859H69.9347Z" fill="white"/>
    <path d="M147.373 52.2891H135.201L138.558 62.4564H150.73L147.373 52.2891Z" fill="#E0E0E0"/>
    <path d="M148.103 44.976C137.998 39.1121 129.262 46.3413 128.831 54.3382C125.61 55.662 128.98 56.4713 128.98 56.4713L127.175 59.0318C126.262 60.3307 127.673 62.4555 129.453 62.4555H140.413C140.774 62.4683 141.128 62.3558 141.416 62.1372C141.703 61.9186 141.906 61.6073 141.99 61.2562C142.078 60.907 142.25 60.5849 142.492 60.3183L142.625 60.3888C143.53 60.8038 144.389 60.6544 144.546 60.0734C144.594 59.8455 144.558 59.6079 144.443 59.4053C144.822 59.3498 145.205 59.3262 145.588 59.3347C151.946 59.6169 154.083 48.4412 148.103 44.976Z" fill="#F0F0F0"/>
    <path d="M142.845 53.2343C143.289 55.2553 142.463 57.1518 140.998 57.4755C139.534 57.7992 137.986 56.4214 137.542 54.4004C137.098 52.3794 137.928 50.4829 139.392 50.1633C140.857 49.8438 142.401 51.2174 142.845 53.2343Z" fill="#E0E0E0"/>
    <path d="M134.102 53.9734C133.272 55.2599 131.981 55.9031 131.197 55.4051C130.412 54.9071 130.475 53.4671 131.305 52.1806C132.135 50.8941 133.425 50.2551 134.21 50.7489C134.994 51.2427 134.927 52.7035 134.102 53.9734Z" fill="#E0E0E0"/>
    <path d="M138.683 43.4622C139.562 44.4292 141.77 44.5371 144.044 43.7984C144.343 41.1922 143.737 35.5815 143.791 34.1498C143.109 33.7017 142.306 33.4727 141.491 33.4935C140.675 33.5143 139.885 33.7838 139.226 34.266C139.226 34.266 139.405 40.9972 138.683 43.4622Z" fill="#E0E0E0"/>
    <path d="M141.571 31.7222C140.247 31.7928 139.67 30.8009 140.043 29.2073C140.417 27.6138 141.865 26.8709 141.313 25.3438C142.898 27.1656 144.127 31.5853 141.571 31.7222Z" fill="#F0F0F0"/>
    <path d="M141.235 31.5013C141.998 31.6341 142.401 31.0863 142.293 30.1484C142.185 29.2105 141.401 28.6669 141.828 27.8203C140.782 28.7665 139.761 31.244 141.235 31.5013Z" fill="#FAFAFA"/>
    <path d="M141.488 33.6145C141.452 33.6139 141.417 33.6045 141.386 33.5872C141.355 33.5698 141.329 33.545 141.31 33.5149C140.807 32.6849 141.185 31.0623 141.202 30.9959C141.208 30.9691 141.22 30.9438 141.236 30.9215C141.252 30.8992 141.272 30.8803 141.296 30.866C141.32 30.8517 141.346 30.8423 141.373 30.8382C141.4 30.8341 141.428 30.8356 141.455 30.8423C141.508 30.8552 141.554 30.8885 141.583 30.9352C141.612 30.9818 141.621 31.038 141.608 31.0913C141.509 31.5063 141.322 32.7513 141.662 33.295C141.681 33.3265 141.691 33.3624 141.692 33.3991C141.693 33.4359 141.684 33.4721 141.666 33.5043C141.648 33.5366 141.623 33.5637 141.592 33.583C141.56 33.6023 141.525 33.6132 141.488 33.6145Z" fill="#E0E0E0"/>
    <path d="M141.272 33.084C140.359 33.499 138.745 33.2002 138.745 33.8559C138.745 34.5116 139.334 35.3332 138.978 36.2338C138.621 37.1343 139.413 38.5619 139.671 37.2215C139.928 35.881 140.613 34.2833 141.189 35.1257C141.766 35.9682 140.567 38.6532 141.824 39.0806C143.082 39.5081 141.986 36.3707 142.214 35.7026C142.443 35.0345 143.393 35.1382 143.621 36.0346C143.85 36.931 144.451 36.7525 144.128 35.5407C143.804 34.329 144.393 34.1007 144.016 33.6276C143.685 33.2426 143.236 32.9796 142.738 32.881C142.241 32.7824 141.724 32.8539 141.272 33.084Z" fill="#F0F0F0"/>
    <path d="M103.748 154.61C148.187 154.61 184.211 152.507 184.211 149.913C184.211 147.318 148.187 145.215 103.748 145.215C59.3097 145.215 23.2852 147.318 23.2852 149.913C23.2852 152.507 59.3097 154.61 103.748 154.61Z" fill="#F5F5F5"/>
    <path d="M58.1533 43.3573C64.345 28.4176 88.1532 13.0296 114.788 18.7565C104.799 21.6988 87.8129 42.4527 92.0957 62.418C74.3754 56.8197 58.1533 43.3573 58.1533 43.3573Z" fill="#FF8C00"/>
    <path opacity="0.3" d="M58.1533 43.3573C64.345 28.4176 88.1532 13.0296 114.788 18.7565C104.799 21.6988 87.8129 42.4527 92.0957 62.418C74.3754 56.8197 58.1533 43.3573 58.1533 43.3573Z" fill="black"/>
    <path d="M90.6346 28.6465L92.4813 31.1157L95.5606 30.9954L93.7844 33.5144L94.8509 36.4069L91.9045 35.4939L89.4851 37.4029L89.4436 34.3194L86.8789 32.6055L89.7963 31.6137L90.6346 28.6465Z" fill="#FF8C00"/>
    <path d="M69.9725 32.2305L71.8192 34.6997L74.8985 34.5793L73.1223 37.0983L74.1888 39.9909L71.2465 39.0779L68.823 40.9868L68.7815 37.9034L66.2168 36.1937L69.1384 35.1977L69.9725 32.2305Z" fill="#FF8C00"/>
    <path d="M83.7003 24.7493L83.2521 27.2766L85.0864 29.0777L82.5424 29.4387L81.3971 31.7378L80.2683 29.4304L77.7285 29.0486L79.5752 27.2641L79.1519 24.7285L81.4178 25.9361L83.7003 24.7493Z" fill="#FF8C00"/>
    <path d="M86.7176 37.9875L86.2736 40.5149L88.1078 42.3159L85.5639 42.677L84.4185 44.976L83.2898 42.6645L80.75 42.2869L82.5967 40.5024L82.1693 37.9668L84.4393 39.1744L86.7176 37.9875Z" fill="#FF8C00"/>
    <path d="M92.5691 20.5742L93.0547 23.0974L95.4077 24.1266L93.1626 25.3674L92.9094 27.9238L91.0336 26.1683L88.5229 26.7203L89.6144 24.3922L88.3154 22.1761L90.8635 22.4956L92.5691 20.5742Z" fill="#FF8C00"/>
    <path d="M104.367 21.4656L102.993 22.7728L103.288 24.6486L101.62 23.7439L99.9266 24.6071L100.271 22.7396L98.9307 21.3992L100.811 21.1502L101.674 19.457L102.491 21.171L104.367 21.4656Z" fill="#FF8C00"/>
    <path d="M111.31 66.7262C108.127 69.9009 91.4651 66.2033 71.342 56.5132C51.219 46.8231 36.4825 35.6846 38.4413 31.6135C40.4001 27.5424 57.5684 33.7923 78.4052 41.8224C100.786 50.4709 117.257 60.7876 111.31 66.7262Z" fill="#263238"/>
    <path d="M70.9638 27.6659C68.2663 27.4335 66.4445 29.8571 65.2742 31.9196C65.1729 32.0968 65.1152 32.2956 65.1058 32.4995C65.0965 32.7034 65.1359 32.9066 65.2206 33.0923C65.3053 33.278 65.4331 33.4409 65.5932 33.5674C65.7533 33.694 65.9413 33.7807 66.1415 33.8203C72.0303 35.003 84.4884 38.8998 91.9458 45.0832C92.0952 45.2099 92.2715 45.3009 92.4613 45.3492C92.6511 45.3974 92.8495 45.4017 93.0412 45.3617C93.2329 45.3217 93.413 45.2384 93.5677 45.1182C93.7223 44.998 93.8475 44.8441 93.9337 44.6682C94.8335 42.6525 95.6164 40.5865 96.2784 38.4806C96.3641 38.2215 96.3656 37.9419 96.2829 37.6818C96.2002 37.4217 96.0374 37.1944 95.8177 37.0323C89.7796 32.5421 80.6248 28.5042 70.9638 27.6659Z" fill="#263238"/>
    <path d="M78.8984 38.9638C77.891 39.0134 76.8827 38.887 75.9188 38.5903C72.3083 37.4615 70.6774 34.2079 72.2834 31.3154C73.8894 28.4229 78.1182 26.987 81.7287 28.1158C82.6281 28.3828 83.4629 28.832 84.1813 29.4355C80.9526 28.5516 77.2592 29.8505 75.8358 32.4235C74.4123 34.9964 75.786 37.8723 78.8984 38.9638Z" fill="white"/>
    <path d="M64.4657 45.3086C59.016 45.571 53.7794 47.5054 49.4678 50.8488C52.8734 52.069 56.54 52.3724 60.0999 51.7285L64.4657 45.3086Z" fill="#263238"/>
    <path d="M137.911 129.319L122.204 119.156C127.387 136.266 126.868 146.521 126.868 146.521C126.868 146.521 122.129 142.736 121.365 148.293L130.561 149.911C130.561 149.911 138.783 136.918 137.911 129.319Z" fill="#263238"/>
    <path d="M64.3245 128.675L48.5547 114.25C57.9003 134.83 59.4234 147.213 59.4234 147.213C59.4234 147.213 54.0285 144.308 54.3729 149.91H63.7103C63.7103 149.91 66.6775 136.008 64.3245 128.675Z" fill="#263238"/>
    <path d="M176.983 70.7723C160.121 62.2815 154.76 86.957 140.542 89.447L142.227 91.717C151.228 90.7376 154.743 84.4795 161.134 78.6364C167.525 72.7933 177.904 72.6937 182.145 84.0023C189.046 102.391 180.801 117.306 170.828 120.862C162.483 123.838 164.603 129.303 169.936 128.921C191.839 127.357 196.707 80.7114 176.983 70.7723Z" fill="#FF8C00"/>
    <path d="M49.7002 63.6167C41.1513 99.9826 44.795 127.223 71.2467 136.465C97.6984 145.707 134.994 148.798 148.568 133.581C162.143 118.363 161.387 79.7807 118.523 84.4452C75.6581 89.1098 92.8471 62.9942 83.1031 50.8971C74.1309 39.7338 55.1532 40.4061 49.7002 63.6167Z" fill="#FF8C00"/>
    <path opacity="0.1" d="M61.5606 62.3269C61.5108 62.912 60.6061 63.3104 59.5396 63.2191C58.473 63.1278 57.6555 62.58 57.7053 61.9742C57.7551 61.3683 58.6598 60.9906 59.7222 61.0819C60.7845 61.1732 61.6104 61.7418 61.5606 62.3269Z" fill="white"/>
    <path opacity="0.1" d="M150.564 94.0576C144.883 87.0898 134.707 82.695 118.539 84.4546C94.4072 87.0815 89.3069 79.9519 87.7258 71.0586C76.5915 74.9056 83.4181 99.743 110.011 109.014C126.988 114.923 155.573 105.237 150.564 94.0576Z" fill="black"/>
    <path d="M77.6043 133.585L64.4697 128.676C72.7696 141.956 72.5995 147.214 72.5995 147.214C72.5995 147.214 66.8393 144.309 67.8893 149.911H77.2266C77.2266 149.911 80.2934 140.225 77.6043 133.585Z" fill="#FF8C00"/>
    <path d="M156.249 114.688L136.919 128.677C142.608 139.882 141.288 147.215 141.288 147.215C141.288 147.215 136.279 144.31 135.894 149.912H145.231C145.231 149.912 154.377 134.043 156.249 114.688Z" fill="#FF8C00"/>
    <path d="M58.5142 52.5657C61.5603 51.8104 64.764 52.8396 65.179 53.9476C65.594 55.0556 62.4152 56.367 60.6141 56.367C58.813 56.367 56.2815 53.1176 58.5142 52.5657Z" fill="#263238"/>
    <path d="M65.4493 61.3094C63.4324 61.3094 61.6065 60.8446 60.6188 59.778C59.9174 59.0269 59.3738 57.6242 60.6395 55.2131C60.6518 55.1889 60.6688 55.1673 60.6895 55.1498C60.7102 55.1322 60.7342 55.119 60.7602 55.1109C60.7861 55.1027 60.8133 55.0999 60.8404 55.1025C60.8674 55.1051 60.8937 55.1131 60.9176 55.126C60.9419 55.1386 60.9636 55.156 60.9812 55.1771C60.9988 55.1982 61.012 55.2226 61.0201 55.2489C61.0282 55.2751 61.031 55.3027 61.0284 55.33C61.0257 55.3574 61.0177 55.384 61.0047 55.4082C60.0668 57.1553 60.0378 58.5248 60.9217 59.4751C62.7145 61.409 67.8148 61.1807 71.1804 59.6868C71.2051 59.6751 71.2319 59.6685 71.2592 59.6674C71.2865 59.6663 71.3138 59.6707 71.3394 59.6804C71.3649 59.6901 71.3883 59.7048 71.408 59.7237C71.4278 59.7427 71.4435 59.7654 71.4543 59.7905C71.4767 59.8406 71.4784 59.8975 71.459 59.9489C71.4395 60.0002 71.4005 60.0418 71.3505 60.0644C69.4866 60.8703 67.4799 61.2937 65.4493 61.3094Z" fill="#263238"/>
    <path d="M56.6965 60.3838C56.0031 60.4223 55.3151 60.2423 54.7294 59.8693C54.5046 59.7175 54.3174 59.5163 54.1822 59.2811C54.047 59.0459 53.9673 58.7829 53.9492 58.5122C53.9492 58.4572 53.9711 58.4044 54.01 58.3655C54.0489 58.3266 54.1017 58.3047 54.1567 58.3047C54.1838 58.3042 54.2107 58.309 54.2358 58.319C54.261 58.329 54.2839 58.3439 54.3032 58.3628C54.3225 58.3817 54.3379 58.4043 54.3483 58.4293C54.3588 58.4542 54.3642 58.481 54.3642 58.5081C54.3816 58.7156 54.4459 58.9165 54.5523 59.0955C54.6587 59.2745 54.8044 59.427 54.9784 59.5414C55.6548 60.0145 57.153 60.3341 60.4854 59.1762C60.5371 59.159 60.5936 59.1629 60.6425 59.1869C60.6914 59.211 60.7289 59.2534 60.7468 59.3049C60.7655 59.3566 60.7629 59.4136 60.7395 59.4634C60.7162 59.5132 60.674 59.5517 60.6223 59.5705C59.3658 60.0502 58.0402 60.3249 56.6965 60.3838Z" fill="#263238"/>
    <path d="M68.931 50.8751C69.0325 50.1002 68.6523 49.4114 68.0819 49.3368C67.5115 49.2621 66.9668 49.8297 66.8654 50.6047C66.7639 51.3796 67.1441 52.0684 67.7145 52.1431C68.2849 52.2177 68.8295 51.6501 68.931 50.8751Z" fill="white"/>
    <path d="M60.2453 50.3543C60.1996 51.1345 59.6933 51.7653 59.1165 51.7612C58.5396 51.757 58.1081 51.1304 58.1537 50.3502C58.1994 49.57 58.7098 48.9434 59.2866 48.9434C59.8635 48.9434 60.2909 49.5783 60.2453 50.3543Z" fill="white"/>
    <path opacity="0.1" d="M103.57 133.153C104.761 121.471 136.217 115.474 135.885 127.094C135.553 138.714 102.429 144.312 103.57 133.153Z" fill="black"/>
    <path opacity="0.2" d="M177.323 118.035C176.947 117.955 176.559 117.957 176.184 118.041C175.81 118.125 175.458 118.288 175.152 118.521C173.835 119.511 172.378 120.3 170.828 120.861C162.482 123.837 164.603 129.302 169.936 128.921C174.467 128.597 178.273 126.344 181.277 122.882C181.481 120.139 179.813 118.608 177.323 118.035Z" fill="black"/>
    <path opacity="0.1" d="M94.7019 118.982C94.3948 115.069 100.927 115.683 100.674 118.281C100.371 121.563 94.897 121.493 94.7019 118.982Z" fill="black"/>
    <path opacity="0.1" d="M51.1736 101.552C50.8665 97.6389 57.3985 98.2531 57.1453 100.851C56.8549 104.134 51.3686 104.063 51.1736 101.552Z" fill="black"/>
    <path d="M38.2253 59.2728C38.1879 59.2734 38.151 59.2636 38.1188 59.2446C38.0866 59.2255 38.0603 59.198 38.0427 59.1649C38.0172 59.1163 38.0117 59.0597 38.0272 59.0071C38.0426 58.9544 38.078 58.9098 38.1257 58.8827C45.1806 55.0274 55.7961 55.7163 55.8999 55.7246C55.9545 55.7289 56.0054 55.7542 56.0418 55.7952C56.0782 55.8362 56.0972 55.8898 56.0949 55.9446C56.0934 55.9722 56.0863 55.9993 56.0741 56.0241C56.0619 56.049 56.0449 56.0712 56.024 56.0893C56.0031 56.1075 55.9788 56.1213 55.9525 56.13C55.9262 56.1386 55.8984 56.1419 55.8708 56.1396C55.7671 56.1396 45.2885 55.4507 38.3249 59.2479C38.2941 59.264 38.26 59.2725 38.2253 59.2728Z" fill="#263238"/>
    <path d="M42.6075 61.9023C42.5753 61.902 42.5436 61.8944 42.5149 61.88C42.4861 61.8656 42.461 61.8449 42.4415 61.8194C42.408 61.7758 42.3931 61.7208 42.4001 61.6664C42.4071 61.6119 42.4354 61.5625 42.4788 61.5289C47.4048 57.7109 54.7585 56.9349 54.8332 56.9307C54.8882 56.9252 54.9432 56.9418 54.986 56.9768C55.0288 57.0118 55.0559 57.0624 55.0614 57.1175C55.0669 57.1725 55.0503 57.2275 55.0153 57.2703C54.9803 57.3131 54.9297 57.3402 54.8747 57.3457C54.8 57.3457 47.5625 58.1176 42.732 61.8609C42.696 61.8878 42.6524 61.9023 42.6075 61.9023Z" fill="#263238"/>
    <path d="M84.2978 59.2732C84.2631 59.2728 84.2289 59.2643 84.1982 59.2483C77.2304 55.4511 66.7684 56.1317 66.6522 56.14C66.625 56.1419 66.5976 56.1384 66.5717 56.1297C66.5458 56.1211 66.5219 56.1074 66.5012 56.0895C66.4596 56.0533 66.434 56.002 66.4302 55.947C66.4263 55.892 66.4445 55.8377 66.4807 55.796C66.5169 55.7544 66.5681 55.7288 66.6232 55.725C66.7311 55.725 77.3259 55.0278 84.3974 58.8831C84.4451 58.9102 84.4804 58.9547 84.4959 59.0074C84.5114 59.06 84.5058 59.1167 84.4804 59.1653C84.4628 59.1983 84.4365 59.2259 84.4042 59.2449C84.372 59.2639 84.3352 59.2737 84.2978 59.2732Z" fill="#263238"/>
    <path d="M79.9199 61.9025C79.8732 61.9019 79.828 61.8859 79.7913 61.8568C74.9649 58.1219 67.7233 57.35 67.6527 57.3417C67.6254 57.3391 67.5989 57.3311 67.5747 57.3182C67.5505 57.3053 67.5291 57.2878 67.5117 57.2665C67.4944 57.2453 67.4814 57.2209 67.4735 57.1946C67.4657 57.1683 67.4631 57.1407 67.466 57.1135C67.4722 57.0591 67.4997 57.0094 67.5425 56.9752C67.5852 56.941 67.6398 56.925 67.6942 56.9309C67.7648 56.9309 75.1226 57.7111 80.0444 61.529C80.0878 61.5626 80.1161 61.6121 80.1231 61.6665C80.1301 61.721 80.1153 61.776 80.0818 61.8195C80.0629 61.8447 80.0385 61.8653 80.0104 61.8797C79.9824 61.8941 79.9515 61.9019 79.9199 61.9025Z" fill="#263238"/>
    <path d="M68.6235 46.4785C70.5491 46.2461 73.7902 47.6571 73.0349 48.8605C72.2796 50.064 65.8347 46.8229 68.6235 46.4785Z" fill="#263238"/>
    <path d="M61.6355 45.9021C59.7306 45.5204 56.3941 46.6782 57.0705 47.9356C57.747 49.193 64.3869 46.4541 61.6355 45.9021Z" fill="#263238"/>
    <path d="M76.6706 46.6113C82.0789 47.3395 87.1316 49.7158 91.1414 53.4172C87.6436 54.3434 83.9633 54.3305 80.472 53.3799C77.4342 51.2427 76.0564 48.9892 76.6706 46.6113Z" fill="#FF8C00"/>
    <path opacity="0.3" d="M76.6706 46.6113C82.0789 47.3395 87.1316 49.7158 91.1414 53.4172C87.6436 54.3434 83.9633 54.3305 80.472 53.3799C77.4342 51.2427 76.0564 48.9892 76.6706 46.6113Z" fill="black"/>
</svg>
