<svg xmlns="http://www.w3.org/2000/svg" width="21" height="21" viewBox="0 0 14 11.7" class="icon" style="enable-background:new 0 0 14 11.7;" xml:space="preserve">
    <path id="monitor-icon-outline" d="M4.3,11.7a.3.3,0,1,1,0-.6H5.8V9.4H1a1,1,0,0,1-1-1V1A1,1,0,0,1,1,0H13a1,1,0,0,1,1,1V8.4a1,1,0,0,1-1,1H8.2v1.7H9.7a.3.3,0,0,1,0,.6Zm2.1-.6H7.6V9.4H6.4ZM.6,1.1V8.3a.5.5,0,0,0,.5.5H12.9a.5.5,0,0,0,.5-.5V1.1a.5.5,0,0,0-.5-.5H1.1A.5.5,0,0,0,.6,1.1ZM4.008,7.254v-.6H9.394v.6Zm4.019-1.5v-.6h2.386v.6ZM4,5.752v-.6H7.386v.6Zm1.407-1.5v-.6H9.368v.6ZM4,4.253v-.6h.826v.6Zm3-1.5v-.6h.92v.6Zm-3,0v-.6H6.386v.6Z" />
</svg>
